<svg xmlns="http://www.w3.org/2000/svg" version="1.1" xmlns:xlink="http://www.w3.org/1999/xlink" xmlns:svgjs="http://svgjs.dev/svgjs" width="1000" height="1000" viewBox="0 0 1000 1000"><rect width="1000" height="1000" fill="#8b3c7f"></rect><g transform="matrix(0.7,0,0,0.7,149.57575757575756,279.6746694477289)"><svg viewBox="0 0 396 248" data-background-color="#8b3c7f" preserveAspectRatio="xMidYMid meet" height="626" width="1000" xmlns="http://www.w3.org/2000/svg" xmlns:xlink="http://www.w3.org/1999/xlink"><g id="tight-bounds" transform="matrix(1,0,0,1,0.2400000000000091,0.6934778114176936)"><svg viewBox="0 0 395.52 247.2" height="247.2" width="395.52"><g><svg></svg></g><g><svg viewBox="0 0 395.52 247.2" height="247.2" width="395.52"><g transform="matrix(1,0,0,1,39.55199999999999,92.24391189907138)"><svg viewBox="0 0 316.416 62.71217620185725" height="62.71217620185725" width="316.416"><g><svg viewBox="0 0 316.416 62.71217620185725" height="62.71217620185725" width="316.416"><g><svg viewBox="0 0 316.416 62.71217620185725" height="62.71217620185725" width="316.416"><g><svg viewBox="0 0 316.416 62.71217620185725" height="62.71217620185725" width="316.416"><g id="textblocktransform"><svg viewBox="0 0 316.416 62.71217620185725" height="62.71217620185725" width="316.416" id="textblock"><g><svg viewBox="0 0 316.416 34.647300476947535" height="34.647300476947535" width="316.416"><g transform="matrix(1,0,0,1,0,0)"><svg width="316.416" viewBox="-9 -26.95 251.58 27.55" height="34.647300476947535" data-palette-color="#bb84e8"><path d="M13.7-26.45L22.95-26.45 22.95-11.35 23.15-11.35 28.95-26.45 38-26.45 27.3 0 15.15 0 13.7-26.45ZM13.5-0.15L-7.55-2.4 13.35-2.4 13.5-0.15ZM13.2-5L-7.85-7.25 13.1-7.25 13.2-5ZM12.2-24.2L-9-26.45 12.05-26.45 12.2-24.2ZM12.45-19.4L-8.7-21.65 12.35-21.65 12.45-19.4ZM12.7-14.6L-8.4-16.85 12.55-16.85 12.7-14.6ZM12.95-9.8L-8.1-12.05 12.8-12.05 12.95-9.8ZM65.05-15.55L64.2-10.75 56.75-10.75 56.15-7.35 65.4-7.35 64.1 0 46.45 0 51.05-26.45 68.65-26.45 66.3-18.95 58.15-18.95 57.55-15.55 65.05-15.55ZM45.2-2.4L44.8-0.15 23.6-2.4 45.2-2.4ZM46.9-12.05L46.5-9.8 25.3-12.05 46.9-12.05ZM47.75-16.85L47.35-14.6 26.15-16.85 47.75-16.85ZM48.6-21.65L48.2-19.4 27-21.65 48.6-21.65ZM49.4-26.45L49.05-24.2 27.85-26.45 49.4-26.45ZM46.05-7.25L45.65-5 24.45-7.25 46.05-7.25ZM101.55 0L94.75 0 89.6-9.9 89.4-9.9 87.65 0 79.25 0 83.85-26.45 90.65-26.45 95.85-16.6 96.15-16.6 97.85-26.45 106.2-26.45 101.55 0ZM78-2.4L77.6-0.15 56.4-2.4 78-2.4ZM79.7-12.05L79.3-9.8 58.1-12.05 79.7-12.05ZM80.55-16.85L80.15-14.6 58.95-16.85 80.55-16.85ZM81.4-21.65L81-19.4 59.8-21.65 81.4-21.65ZM82.2-26.45L81.85-24.2 60.65-26.45 82.2-26.45ZM78.85-7.25L78.45-5 57.25-7.25 78.85-7.25ZM122.29-26.45L133.54-26.45Q138.99-26.45 141.34-24.5 143.69-22.55 143.69-18.25L143.69-18.25Q143.69-16.2 143.14-13.2L143.14-13.2Q141.89-6.1 138.82-3.05 135.74 0 128.89 0L128.89 0 117.69 0 122.29-26.45ZM132.34-19.15L132.34-19.15 129.44-19.15 127.34-7.15 130.24-7.15Q131.69-7.15 132.47-7.53 133.24-7.9 133.44-9.05L133.44-9.05 134.89-17.3Q134.94-17.5 134.94-18.1L134.94-18.1Q134.94-19.15 132.34-19.15ZM116.44-2.4L116.04-0.15 94.84-2.4 116.44-2.4ZM118.14-12.05L117.74-9.8 96.54-12.05 118.14-12.05ZM118.99-16.85L118.59-14.6 97.39-16.85 118.99-16.85ZM119.84-21.65L119.44-19.4 98.24-21.65 119.84-21.65ZM120.64-26.45L120.29-24.2 99.09-26.45 120.64-26.45ZM117.29-7.25L116.89-5 95.69-7.25 117.29-7.25ZM165.19 0L156.44 0 161.04-26.45 169.84-26.45 165.19 0ZM155.19-2.4L154.79-0.15 133.59-2.4 155.19-2.4ZM156.89-12.05L156.49-9.8 135.29-12.05 156.89-12.05ZM157.74-16.85L157.34-14.6 136.14-16.85 157.74-16.85ZM158.59-21.65L158.19-19.4 136.99-21.65 158.59-21.65ZM159.39-26.45L159.04-24.2 137.84-26.45 159.39-26.45ZM156.04-7.25L155.64-5 134.44-7.25 156.04-7.25ZM203.19 0L196.39 0 191.24-9.9 191.04-9.9 189.29 0 180.89 0 185.49-26.45 192.29-26.45 197.49-16.6 197.79-16.6 199.49-26.45 207.84-26.45 203.19 0ZM179.64-2.4L179.24-0.15 158.04-2.4 179.64-2.4ZM181.34-12.05L180.94-9.8 159.74-12.05 181.34-12.05ZM182.19-16.85L181.79-14.6 160.59-16.85 182.19-16.85ZM183.04-21.65L182.64-19.4 161.44-21.65 183.04-21.65ZM183.84-26.45L183.49-24.2 162.29-26.45 183.84-26.45ZM180.49-7.25L180.09-5 158.89-7.25 180.49-7.25ZM241.88-15.55L239.38-1.4Q234.28 0.6 228.98 0.6 223.69 0.6 221.44-1.48 219.19-3.55 219.19-7.9L219.19-7.9Q219.19-10.05 219.88-14.05 220.58-18.05 222.03-20.9L222.03-20.9Q225.19-26.95 234.78-26.95L234.78-26.95Q240.38-26.95 242.58-25.85L242.58-25.85 240.03-18.9Q236.88-19.6 234.36-19.6 231.83-19.6 230.78-19.25 229.73-18.9 229.53-17.9L229.53-17.9 227.44-6.4 229.73-6.4Q230.98-6.4 231.66-6.68 232.33-6.95 232.48-7.9L232.48-7.9 232.83-9.85 230.78-9.85 231.78-15.55 241.88-15.55ZM198.03-12.05L217.98-12.05Q217.78-10.5 217.73-9.95L217.73-9.95 198.03-12.05ZM198.94-16.85L218.94-16.85 218.48-14.75 198.94-16.85ZM198.23-7.25L217.69-7.25Q217.69-6.45 217.88-5.15L217.88-5.15 198.23-7.25ZM200.94-21.65L220.69-21.65Q220.08-20.35 219.83-19.65L219.83-19.65 200.94-21.65ZM202.58-2.4L218.73-2.4Q219.33-1.2 220.03-0.55L220.03-0.55 202.58-2.4ZM207.63-26.45L225.03-26.45Q223.83-25.75 222.98-24.8L222.98-24.8 207.63-26.45Z" opacity="1" transform="matrix(1,0,0,1,0,0)" fill="#bb84e8" class="undefined-text-0" data-fill-palette-color="primary" id="text-0"></path></svg></g></svg></g><g transform="matrix(1,0,0,1,0,42.8266965843434)"><svg viewBox="0 0 316.416 19.88547961751384" height="19.88547961751384" width="316.416"><g transform="matrix(1,0,0,1,0,0)"><svg width="316.416" viewBox="0.7 -37.8 794.8 49.949999999999996" height="19.88547961751384" data-palette-color="#471aa0"><path d="M19.1 0L12.05 0 12.05-15 0.7-32.4 0.7-35.4 9.1-35.4 15.1-22.6 16.1-22.6 22.05-35.4 30.55-35.4 30.55-32.4 18.8-14.7 19.1-9.65 19.1 0ZM40.55 0.5L40.55 0.5Q34.45 0.5 31.6-2.7 28.75-5.9 28.75-11.8L28.75-11.8Q28.75-17.75 31.6-20.93 34.45-24.1 40.55-24.1L40.55-24.1Q46.85-24.1 49.58-20.93 52.3-17.75 52.3-11.8L52.3-11.8Q52.3-5.9 49.58-2.7 46.85 0.5 40.55 0.5ZM40.55-4.5L40.55-4.5Q42.6-4.5 43.93-6.1 45.25-7.7 45.25-11.8L45.25-11.8Q45.25-15.9 43.93-17.5 42.6-19.1 40.55-19.1L40.55-19.1Q38.45-19.1 37.13-17.5 35.8-15.9 35.8-11.8L35.8-11.8Q35.8-7.7 37.15-6.1 38.5-4.5 40.55-4.5ZM63.3 0.5L63.3 0.5Q60.3 0.5 58.68-0.65 57.05-1.8 56.43-3.98 55.8-6.15 55.8-9.2L55.8-9.2 55.8-23.65 62.8-23.65 62.8-9Q62.8-6.95 63.58-6 64.35-5.05 66.2-5.05L66.2-5.05Q68.55-5.05 69.93-6.85 71.3-8.65 71.3-11.05L71.3-11.05 71.3-23.65 78.3-23.65 78.3-8.05 79.35-3.05 78.3 0 71.85 0 71.85-2.45 71.35-2.7Q70.7-2.05 69.48-1.3 68.25-0.55 66.68-0.03 65.1 0.5 63.3 0.5ZM91.3 0L84.4 0 84.4-15.65 83.35-20.65 84.4-23.65 89.2-23.65 90.2-22.5Q90.2-22.5 90.88-22.93 91.55-23.35 92.8-23.75 94.05-24.15 95.85-24.15L95.85-24.15Q96.85-24.15 97.85-24 98.85-23.85 99.4-23.6L99.4-23.6 102.65-20.35 99.9-15.45 93.05-18.9 91.3-18.2 91.3 0ZM124.65 12.15L117.65 12.15 117.65-15.1 116.65-20.6 118.2-23.65 123.65-23.65 123.65-21.5 124.15-21.25Q124.15-21.25 125.05-22 125.95-22.75 127.53-23.48 129.1-24.2 131.2-24.2L131.2-24.2Q135.65-24.2 138.18-21.35 140.7-18.5 140.7-12.35L140.7-12.35Q140.7-7.75 139.43-4.93 138.15-2.1 136-0.85 133.85 0.4 131.2 0.4L131.2 0.4Q128.6 0.4 126.9-0.08 125.2-0.55 124.65-0.75L124.65-0.75 124.65 12.15ZM127.95-4.9L127.95-4.9Q129.9-4.9 131.05-5.88 132.2-6.85 132.7-8.45 133.2-10.05 133.2-11.9L133.2-11.9Q133.2-13.7 132.8-15.25 132.4-16.8 131.38-17.73 130.35-18.65 128.45-18.65L128.45-18.65 124.65-17.6 124.65-5.55Q124.65-5.55 125.68-5.23 126.7-4.9 127.95-4.9ZM151.7 0.5L151.7 0.5Q148.35 0.5 146.03-1.23 143.7-2.95 143.7-6.6L143.7-6.6Q143.7-10.45 146.15-12.48 148.6-14.5 152.7-14.5L152.7-14.5Q155.7-14.5 157.28-14 158.85-13.5 159.35-13.25L159.35-13.25 159.7-13.55Q159.7-15.05 159.45-16.2 159.2-17.35 158.3-17.98 157.4-18.6 155.5-18.6L155.5-18.6Q152.1-18.6 149.43-18.05 146.75-17.5 145.2-17.05L145.2-17.05 145.2-22.55Q146.75-23.1 149.9-23.58 153.05-24.05 156.7-24.05L156.7-24.05Q159.8-24.05 161.78-23.23 163.75-22.4 164.83-21 165.9-19.6 166.33-17.93 166.75-16.25 166.75-14.6L166.75-14.6 166.75-7.95 167.75-2.9 166.75 0.05 160.2 0.05 160.2-2.4 159.7-2.65Q159.3-2.15 158.33-1.4 157.35-0.65 155.73-0.08 154.1 0.5 151.7 0.5ZM154.45-5.05L154.45-5.05Q156.6-5.05 157.83-5.45 159.05-5.85 159.7-6.25L159.7-6.25 159.7-7.2Q159.7-8.15 158.58-9.1 157.45-10.05 154.9-10.05L154.9-10.05Q153-10.05 152.1-9.3 151.2-8.55 151.2-7.4L151.2-7.4Q151.2-6.2 152.05-5.63 152.9-5.05 154.45-5.05ZM179.5 0L172.6 0 172.6-15.65 171.55-20.65 172.6-23.65 177.4-23.65 178.4-22.5Q178.4-22.5 179.08-22.93 179.75-23.35 181-23.75 182.25-24.15 184.05-24.15L184.05-24.15Q185.05-24.15 186.05-24 187.05-23.85 187.6-23.6L187.6-23.6 190.85-20.35 188.1-15.45 181.25-18.9 179.5-18.2 179.5 0ZM201 0.5L201 0.5Q197.6 0.5 196.05-1 194.5-2.5 194.5-5.55L194.5-5.55 194.5-18.95 191.35-18.95 191.35-22.2 194-24.65 197.55-30.85 201.45-30.85 201.45-23.6 207.95-23.6 207.95-18.6 201.45-18.6 201.45-4.9 207.95-4.95 207.95-1Q207.95-1 207.15-0.63 206.35-0.25 204.83 0.13 203.3 0.5 201 0.5ZM218.95 0L211.95 0 211.95-15.05 210.95-20.55 212.5-23.6 217.95-23.6 217.95-21.45 218.4-21.15Q218.95-21.65 219.93-22.33 220.9-23 222.3-23.55 223.7-24.1 225.45-24.1L225.45-24.1Q229.95-24.1 232.2-21.55 234.45-19 234.45-14.4L234.45-14.4 234.45-8.05 235.5-3.05 234.45 0 227.45 0 227.45-14.6Q227.45-16.5 226.63-17.53 225.8-18.55 224.05-18.55L224.05-18.55 218.95-17.6 218.95 0ZM250.05 0.5L250.05 0.5Q246.8 0.5 244.25-0.65 241.7-1.8 240.25-4.5 238.8-7.2 238.8-11.8L238.8-11.8Q238.8-16.25 240.35-18.95 241.9-21.65 244.45-22.88 247-24.1 250.05-24.1L250.05-24.1Q253.4-24.1 255.33-23.35 257.25-22.6 258.25-21.9L258.25-21.9 260.75-13.95 259.75-10.85 245.75-10.85Q246.05-8.2 247.65-6.6 249.25-5 252.55-5L252.55-5Q255.25-5 256.93-5.65 258.6-6.3 259.25-6.65L259.25-6.65 259.25-1.45Q257.75-0.65 255.43-0.08 253.1 0.5 250.05 0.5ZM245.7-14.05L245.7-14.05 253.2-15.05 252.45-18.75Q252.1-18.95 251.48-19.05 250.85-19.15 250.35-19.15L250.35-19.15Q248.1-19.15 246.9-17.57 245.7-16 245.7-14.05ZM271.8 0L264.9 0 264.9-15.65 263.85-20.65 264.9-23.65 269.7-23.65 270.7-22.5Q270.7-22.5 271.38-22.93 272.05-23.35 273.3-23.75 274.55-24.15 276.35-24.15L276.35-24.15Q277.35-24.15 278.35-24 279.35-23.85 279.9-23.6L279.9-23.6 283.15-20.35 280.4-15.45 273.55-18.9 271.8-18.2 271.8 0ZM305.8 0L298.8 0 298.8-17.7 296.15-21.2 298.8-23.6Q298.55-24.45 298.43-25.88 298.3-27.3 298.3-28.2L298.3-28.2Q298.3-32.45 300.23-35.13 302.15-37.8 306.6-37.8L306.6-37.8Q308-37.8 309.58-37.68 311.15-37.55 312.3-37.25L312.3-37.25 317.15-34.2 314.8-29.25 308.05-32.25Q306.35-32.25 305.55-30.98 304.75-29.7 304.75-27.8L304.75-27.8Q304.75-26.55 305.1-25.28 305.45-24 305.8-23.6L305.8-23.6 313.8-23.6 313.8-19.1 305.8-19.1 305.8-8.1 306.3-3.05 305.8 0ZM326.95 0.5L326.95 0.5Q320.85 0.5 318-2.7 315.15-5.9 315.15-11.8L315.15-11.8Q315.15-17.75 318-20.93 320.85-24.1 326.95-24.1L326.95-24.1Q333.25-24.1 335.98-20.93 338.7-17.75 338.7-11.8L338.7-11.8Q338.7-5.9 335.98-2.7 333.25 0.5 326.95 0.5ZM326.95-4.5L326.95-4.5Q329-4.5 330.33-6.1 331.65-7.7 331.65-11.8L331.65-11.8Q331.65-15.9 330.33-17.5 329-19.1 326.95-19.1L326.95-19.1Q324.85-19.1 323.53-17.5 322.2-15.9 322.2-11.8L322.2-11.8Q322.2-7.7 323.55-6.1 324.9-4.5 326.95-4.5ZM350.15 0L343.25 0 343.25-15.65 342.2-20.65 343.25-23.65 348.05-23.65 349.05-22.5Q349.05-22.5 349.73-22.93 350.4-23.35 351.65-23.75 352.9-24.15 354.7-24.15L354.7-24.15Q355.7-24.15 356.7-24 357.7-23.85 358.25-23.6L358.25-23.6 361.5-20.35 358.75-15.45 351.9-18.9 350.15-18.2 350.15 0ZM383 0.5L383 0.5Q379.65 0.5 377.33-1.23 375-2.95 375-6.6L375-6.6Q375-10.45 377.45-12.48 379.9-14.5 384-14.5L384-14.5Q387-14.5 388.58-14 390.15-13.5 390.65-13.25L390.65-13.25 391-13.55Q391-15.05 390.75-16.2 390.5-17.35 389.6-17.98 388.7-18.6 386.8-18.6L386.8-18.6Q383.4-18.6 380.73-18.05 378.05-17.5 376.5-17.05L376.5-17.05 376.5-22.55Q378.05-23.1 381.2-23.58 384.35-24.05 388-24.05L388-24.05Q391.1-24.05 393.08-23.23 395.05-22.4 396.13-21 397.2-19.6 397.63-17.93 398.05-16.25 398.05-14.6L398.05-14.6 398.05-7.95 399.05-2.9 398.05 0.05 391.5 0.05 391.5-2.4 391-2.65Q390.6-2.15 389.63-1.4 388.65-0.65 387.03-0.08 385.4 0.5 383 0.5ZM385.75-5.05L385.75-5.05Q387.9-5.05 389.13-5.45 390.35-5.85 391-6.25L391-6.25 391-7.2Q391-8.15 389.88-9.1 388.75-10.05 386.2-10.05L386.2-10.05Q384.3-10.05 383.4-9.3 382.5-8.55 382.5-7.4L382.5-7.4Q382.5-6.2 383.35-5.63 384.2-5.05 385.75-5.05ZM415.85-15.05L414.85-20.55 416.4-23.6 421.85-23.6 421.85-21.45 422.3-21.15Q422.85-21.65 423.83-22.33 424.8-23 426.2-23.55 427.6-24.1 429.35-24.1L429.35-24.1Q434.55-24.1 436.8-20.65L436.8-20.65Q437.65-21.9 439.48-23.03 441.3-24.15 444.55-24.15L444.55-24.15Q449.05-24.15 451.3-21.6 453.55-19.05 453.55-14.45L453.55-14.45 453.55-8.05 454.6-3.05 453.55 0 446.6 0 446.6-14.65Q446.6-16.55 445.58-17.57 444.55-18.6 442.65-18.6L442.65-18.6Q440.7-18.6 439.53-17.5 438.35-16.4 438.35-14.6L438.35-14.6 438.35-14.6 438.35-14.4 438.35 0 431.35 0 431.35-14.6Q431.35-16.5 430.53-17.53 429.7-18.55 427.95-18.55L427.95-18.55 422.85-17.6 422.85 0 415.85 0 415.85-15.05ZM468.2-31.45L462.9-26.1 457.55-31.45 462.9-36.8 468.2-31.45ZM466.35 0L459.4 0 459.4-16.55 458.35-20.55 459.35-23.6 466.35-23.6 466.35 0ZM479.9 0.5L479.9 0.5Q477.55 0.5 475.38-0.7 473.2-1.9 471.8-4.5 470.4-7.1 470.4-11.3L470.4-11.3Q470.4-15.95 471.9-18.75 473.4-21.55 475.73-22.83 478.05-24.1 480.4-24.1L480.4-24.1Q482.9-24.1 484.3-23.68 485.7-23.25 486.4-22.9L486.4-22.9 485.9-32.35 486.4-35.35 493.45-35.35 493.45-8 494.45-3 493.45 0.05 486.9 0.05 486.9-2.4 486.4-2.65Q486.4-2.65 485.65-1.88 484.9-1.1 483.45-0.3 482 0.5 479.9 0.5ZM482.65-5.05L482.65-5.05 486.4-5.75 486.4-16.05Q486.4-17.2 485.45-17.88 484.5-18.55 482.65-18.55L482.65-18.55Q480.75-18.55 479.73-17.63 478.7-16.7 478.3-15.18 477.9-13.65 477.9-11.8L477.9-11.8Q477.9-9.05 479-7.05 480.1-5.05 482.65-5.05ZM507.95 0.5L507.95 0.5Q505.6 0.5 503.43-0.7 501.25-1.9 499.85-4.5 498.45-7.1 498.45-11.3L498.45-11.3Q498.45-15.95 499.95-18.75 501.45-21.55 503.78-22.83 506.1-24.1 508.45-24.1L508.45-24.1Q510.95-24.1 512.35-23.68 513.75-23.25 514.45-22.9L514.45-22.9 513.95-32.35 514.45-35.35 521.5-35.35 521.5-8 522.5-3 521.5 0.05 514.95 0.05 514.95-2.4 514.45-2.65Q514.45-2.65 513.7-1.88 512.95-1.1 511.5-0.3 510.05 0.5 507.95 0.5ZM510.7-5.05L510.7-5.05 514.45-5.75 514.45-16.05Q514.45-17.2 513.5-17.88 512.55-18.55 510.7-18.55L510.7-18.55Q508.8-18.55 507.78-17.63 506.75-16.7 506.35-15.18 505.95-13.65 505.95-11.8L505.95-11.8Q505.95-9.05 507.05-7.05 508.15-5.05 510.7-5.05ZM534.85 0L527.85 0 527.85-27.4 526.8-32.4 527.85-35.4 534.85-35.4 534.85 0ZM550.45 0.5L550.45 0.5Q547.2 0.5 544.65-0.65 542.1-1.8 540.65-4.5 539.2-7.2 539.2-11.8L539.2-11.8Q539.2-16.25 540.75-18.95 542.3-21.65 544.85-22.88 547.4-24.1 550.45-24.1L550.45-24.1Q553.8-24.1 555.73-23.35 557.65-22.6 558.65-21.9L558.65-21.9 561.15-13.95 560.15-10.85 546.15-10.85Q546.45-8.2 548.05-6.6 549.65-5 552.95-5L552.95-5Q555.65-5 557.33-5.65 559-6.3 559.65-6.65L559.65-6.65 559.65-1.45Q558.15-0.65 555.83-0.08 553.5 0.5 550.45 0.5ZM546.1-14.05L546.1-14.05 553.6-15.05 552.85-18.75Q552.5-18.95 551.88-19.05 551.25-19.15 550.75-19.15L550.75-19.15Q548.5-19.15 547.3-17.57 546.1-16 546.1-14.05ZM587.55 0.5L587.55 0.5Q581.45 0.5 578.6-2.7 575.75-5.9 575.75-11.8L575.75-11.8Q575.75-17.75 578.6-20.93 581.45-24.1 587.55-24.1L587.55-24.1Q593.85-24.1 596.58-20.93 599.3-17.75 599.3-11.8L599.3-11.8Q599.3-5.9 596.58-2.7 593.85 0.5 587.55 0.5ZM587.55-4.5L587.55-4.5Q589.6-4.5 590.93-6.1 592.25-7.7 592.25-11.8L592.25-11.8Q592.25-15.9 590.93-17.5 589.6-19.1 587.55-19.1L587.55-19.1Q585.45-19.1 584.13-17.5 582.8-15.9 582.8-11.8L582.8-11.8Q582.8-7.7 584.15-6.1 585.5-4.5 587.55-4.5ZM611.45 0L604.45 0 604.45-17.7 601.8-21.2 604.45-23.6Q604.2-24.45 604.08-25.88 603.95-27.3 603.95-28.2L603.95-28.2Q603.95-32.45 605.88-35.13 607.8-37.8 612.25-37.8L612.25-37.8Q613.65-37.8 615.23-37.68 616.8-37.55 617.95-37.25L617.95-37.25 622.8-34.2 620.45-29.25 613.7-32.25Q612-32.25 611.2-30.98 610.4-29.7 610.4-27.8L610.4-27.8Q610.4-26.55 610.75-25.28 611.1-24 611.45-23.6L611.45-23.6 619.45-23.6 619.45-19.1 611.45-19.1 611.45-8.1 611.95-3.05 611.45 0ZM642.95 0.5L642.95 0.5Q639.55 0.5 638-1 636.45-2.5 636.45-5.55L636.45-5.55 636.45-18.95 633.3-18.95 633.3-22.2 635.95-24.65 639.5-30.85 643.4-30.85 643.4-23.6 649.9-23.6 649.9-18.6 643.4-18.6 643.4-4.9 649.9-4.95 649.9-1Q649.9-1 649.1-0.63 648.3-0.25 646.78 0.13 645.25 0.5 642.95 0.5ZM660.7 0L653.7 0 653.7-27.4 652.7-32.4 653.7-35.4 660.7-35.4 660.7-27.3 660.2-21.75 660.7-21.5Q661.3-22.4 662.93-23.28 664.55-24.15 667.2-24.15L667.2-24.15Q671.7-24.15 673.95-21.6 676.2-19.05 676.2-14.45L676.2-14.45 676.2-7.95 677.25-3.05 676.2 0 669.2 0 669.2-14.65Q669.2-16.55 667.88-17.57 666.55-18.6 664.8-18.6L664.8-18.6 660.7-17.15 660.7 0ZM691.8 0.5L691.8 0.5Q688.55 0.5 686-0.65 683.45-1.8 682-4.5 680.55-7.2 680.55-11.8L680.55-11.8Q680.55-16.25 682.1-18.95 683.65-21.65 686.2-22.88 688.75-24.1 691.8-24.1L691.8-24.1Q695.15-24.1 697.08-23.35 699-22.6 700-21.9L700-21.9 702.5-13.95 701.5-10.85 687.5-10.85Q687.8-8.2 689.4-6.6 691-5 694.3-5L694.3-5Q697-5 698.68-5.65 700.35-6.3 701-6.65L701-6.65 701-1.45Q699.5-0.65 697.18-0.08 694.85 0.5 691.8 0.5ZM687.45-14.05L687.45-14.05 694.95-15.05 694.2-18.75Q693.85-18.95 693.23-19.05 692.6-19.15 692.1-19.15L692.1-19.15Q689.85-19.15 688.65-17.57 687.45-16 687.45-14.05ZM726.6 0.5L726.6 0.5Q724.25 0.5 722.08-0.7 719.9-1.9 718.5-4.5 717.1-7.1 717.1-11.3L717.1-11.3Q717.1-15.95 718.6-18.75 720.1-21.55 722.43-22.83 724.75-24.1 727.1-24.1L727.1-24.1Q729.6-24.1 731-23.68 732.4-23.25 733.1-22.9L733.1-22.9 732.6-32.35 733.1-35.35 740.15-35.35 740.15-8 741.15-3 740.15 0.05 733.6 0.05 733.6-2.4 733.1-2.65Q733.1-2.65 732.35-1.88 731.6-1.1 730.15-0.3 728.7 0.5 726.6 0.5ZM729.35-5.05L729.35-5.05 733.1-5.75 733.1-16.05Q733.1-17.2 732.15-17.88 731.2-18.55 729.35-18.55L729.35-18.55Q727.45-18.55 726.43-17.63 725.4-16.7 725-15.18 724.6-13.65 724.6-11.8L724.6-11.8Q724.6-9.05 725.7-7.05 726.8-5.05 729.35-5.05ZM753.15 0.5L753.15 0.5Q749.8 0.5 747.48-1.23 745.15-2.95 745.15-6.6L745.15-6.6Q745.15-10.45 747.6-12.48 750.05-14.5 754.15-14.5L754.15-14.5Q757.15-14.5 758.73-14 760.3-13.5 760.8-13.25L760.8-13.25 761.15-13.55Q761.15-15.05 760.9-16.2 760.65-17.35 759.75-17.98 758.85-18.6 756.95-18.6L756.95-18.6Q753.55-18.6 750.88-18.05 748.2-17.5 746.65-17.05L746.65-17.05 746.65-22.55Q748.2-23.1 751.35-23.58 754.5-24.05 758.15-24.05L758.15-24.05Q761.25-24.05 763.23-23.23 765.2-22.4 766.27-21 767.35-19.6 767.77-17.93 768.2-16.25 768.2-14.6L768.2-14.6 768.2-7.95 769.2-2.9 768.2 0.05 761.65 0.05 761.65-2.4 761.15-2.65Q760.75-2.15 759.77-1.4 758.8-0.65 757.17-0.08 755.55 0.5 753.15 0.5ZM755.9-5.05L755.9-5.05Q758.05-5.05 759.27-5.45 760.5-5.85 761.15-6.25L761.15-6.25 761.15-7.2Q761.15-8.15 760.02-9.1 758.9-10.05 756.35-10.05L756.35-10.05Q754.45-10.05 753.55-9.3 752.65-8.55 752.65-7.4L752.65-7.4Q752.65-6.2 753.5-5.63 754.35-5.05 755.9-5.05ZM776.05 12.15L776.05 12.15 769 9.65 771 3.7 778 5.7Q779.45 5.7 780.45 4.83 781.45 3.95 782.13 2.63 782.8 1.3 783.1-0.05L783.1-0.05 778.45-0.05 772.95-17.15 772-23.65 779.5-23.65 783.25-5.65 784.25-5.65 788-23.65 795.5-23.65Q795.5-23.65 795.17-22.08 794.85-20.5 794.27-17.9 793.7-15.3 792.92-12.18 792.15-9.05 791.3-5.88 790.45-2.7 789.55-0.05L789.55-0.05Q788.2 4.1 786.58 6.8 784.95 9.5 782.5 10.83 780.05 12.15 776.05 12.15Z" opacity="1" transform="matrix(1,0,0,1,0,0)" fill="#471aa0" class="undefined-text-1" data-fill-palette-color="secondary" id="text-1"></path></svg></g></svg></g></svg></g></svg></g><g></g></svg></g></svg></g></svg></g><g mask="url(#7a54f425-06de-449c-903d-6072b14f8359)"><g transform="matrix(1.915625, 0, 0, 1.915625, 101.97874999999999, 1)"><svg xmlns="http://www.w3.org/2000/svg" data-name="Layer 1" viewBox="14 0 100 128" x="0" y="0" height="128" width="100" class="icon-none" data-fill-palette-color="accent" id="none"><circle cx="42.44" cy="6" r="0.50" fill="#471aa0" data-fill-palette-color="accent"></circle><circle cx="50.28" cy="6" r="0.50" fill="#471aa0" data-fill-palette-color="accent"></circle><circle cx="46.36" cy="6" r="0.50" fill="#471aa0" data-fill-palette-color="accent"></circle><circle cx="54.2" cy="6" r="0.50" fill="#471aa0" data-fill-palette-color="accent"></circle><circle cx="58.12" cy="6" r="0.50" fill="#471aa0" data-fill-palette-color="accent"></circle><circle cx="38.52" cy="6" r="0.50" fill="#471aa0" data-fill-palette-color="accent"></circle><path d="M66 5.5a0.5 0.5 0 0 0 0 1 0.5 0.5 0 0 0 0-1Z" fill="#471aa0" data-fill-palette-color="accent"></path><circle cx="22.84" cy="6" r="0.50" fill="#471aa0" data-fill-palette-color="accent"></circle><circle cx="18.92" cy="6" r="0.50" fill="#471aa0" data-fill-palette-color="accent"></circle><circle cx="26.76" cy="6" r="0.50" fill="#471aa0" data-fill-palette-color="accent"></circle><circle cx="34.6" cy="6" r="0.50" fill="#471aa0" data-fill-palette-color="accent"></circle><circle cx="30.68" cy="6" r="0.50" fill="#471aa0" data-fill-palette-color="accent"></circle><circle cx="62.04" cy="6" r="0.50" fill="#471aa0" data-fill-palette-color="accent"></circle><circle cx="97.32" cy="6" r="0.50" fill="#471aa0" data-fill-palette-color="accent"></circle><circle cx="101.24" cy="6" r="0.50" fill="#471aa0" data-fill-palette-color="accent"></circle><path d="M109.08 5.5a0.5 0.5 0 0 0 0 1 0.5 0.5 0 0 0 0-1Z" fill="#471aa0" data-fill-palette-color="accent"></path><circle cx="105.16" cy="6" r="0.50" fill="#471aa0" data-fill-palette-color="accent"></circle><circle cx="93.4" cy="6" r="0.50" fill="#471aa0" data-fill-palette-color="accent"></circle><path d="M69.88 5.5a0.5 0.5 0 0 0 0 1 0.5 0.5 0 0 0 0-1Z" fill="#471aa0" data-fill-palette-color="accent"></path><path d="M77.72 5.5a0.5 0.5 0 0 0 0 1 0.5 0.5 0 0 0 0-1Z" fill="#471aa0" data-fill-palette-color="accent"></path><path d="M89.48 5.5a0.5 0.5 0 0 0 0 1 0.5 0.5 0 0 0 0-1Z" fill="#471aa0" data-fill-palette-color="accent"></path><path d="M73.8 5.5a0.5 0.5 0 0 0 0 1 0.5 0.5 0 0 0 0-1Z" fill="#471aa0" data-fill-palette-color="accent"></path><path d="M81.64 5.5a0.5 0.5 0 0 0 0 1 0.5 0.5 0 0 0 0-1Z" fill="#471aa0" data-fill-palette-color="accent"></path><path d="M85.56 5.5a0.5 0.5 0 0 0 0 1 0.5 0.5 0 0 0 0-1Z" fill="#471aa0" data-fill-palette-color="accent"></path><path d="M78.5 109a0.5 0.5 0 0 1-0.5 0.5H42a0.5 0.5 0 0 1-0.5-0.5v-2H26v5H94v-5H78.5Z" fill="#471aa0" data-fill-palette-color="accent"></path><circle cx="105" cy="85" r="1.0" fill="#471aa0" data-fill-palette-color="accent"></circle><rect x="42.5" y="107" width="35" height="1.5" fill="#471aa0" data-fill-palette-color="accent"></rect><path d="M110 0H18a4 4 0 0 0-4 4V122h4v4a2 2 0 0 0 1.94 2H32.06A2 2 0 0 0 34 126v-4H94v4a2 2 0 0 0 1.94 2h12.12a2 2 0 0 0 1.94-2v-4h4V4A4 4 0 0 0 110 0ZM32 126s0 0 0 0H20s0 0 0 0v-4H32Zm62-12H26a2 2 0 0 1-2-2v-5a2 2 0 0 1 2-2H94a2 2 0 0 1 2 2v5A2 2 0 0 1 94 114ZM86 23.5H82A1.5 1.5 0 0 0 80.5 25v7.5h-9V25A1.5 1.5 0 0 0 70 23.5H66A1.5 1.5 0 0 0 64.5 25v7.5h-9V25A1.5 1.5 0 0 0 54 23.5H50A1.5 1.5 0 0 0 48.5 25v7.5h-9V25A1.5 1.5 0 0 0 38 23.5H34A1.5 1.5 0 0 0 32.5 25v7.5H24V20H96V32.5H87.5V25A1.5 1.5 0 0 0 86 23.5Zm10 10v13H87.5V39A1.5 1.5 0 0 0 86 37.5H82A1.5 1.5 0 0 0 80.5 39v7.5h-9V39A1.5 1.5 0 0 0 70 37.5H66A1.5 1.5 0 0 0 64.5 39v7.5h-9V39A1.5 1.5 0 0 0 54 37.5H50A1.5 1.5 0 0 0 48.5 39v7.5h-9V39A1.5 1.5 0 0 0 38 37.5H34A1.5 1.5 0 0 0 32.5 39v7.5H24v-13Zm0 14v13H87.5V53A1.5 1.5 0 0 0 86 51.5H82A1.5 1.5 0 0 0 80.5 53v7.5h-9V53A1.5 1.5 0 0 0 70 51.5H66A1.5 1.5 0 0 0 64.5 53v7.5h-9V53A1.5 1.5 0 0 0 54 51.5H50A1.5 1.5 0 0 0 48.5 53v7.5h-9V53A1.5 1.5 0 0 0 38 51.5H34A1.5 1.5 0 0 0 32.5 53v7.5H24v-13Zm0 14v13H87.5V67A1.5 1.5 0 0 0 86 65.5H82A1.5 1.5 0 0 0 80.5 67v7.5h-9V67A1.5 1.5 0 0 0 70 65.5H66A1.5 1.5 0 0 0 64.5 67v7.5h-9V67A1.5 1.5 0 0 0 54 65.5H50A1.5 1.5 0 0 0 48.5 67v7.5h-9V67A1.5 1.5 0 0 0 38 65.5H34A1.5 1.5 0 0 0 32.5 67v7.5H24v-13Zm0 14v13H87.5V81A1.5 1.5 0 0 0 86 79.5H82A1.5 1.5 0 0 0 80.5 81v7.5h-9V81A1.5 1.5 0 0 0 70 79.5H66A1.5 1.5 0 0 0 64.5 81v7.5h-9V81A1.5 1.5 0 0 0 54 79.5H50A1.5 1.5 0 0 0 48.5 81v7.5h-9V81A1.5 1.5 0 0 0 38 79.5H34A1.5 1.5 0 0 0 32.5 81v7.5H24v-13Zm0 14V101H87.5V95A1.5 1.5 0 0 0 86 93.5H82A1.5 1.5 0 0 0 80.5 95v6h-9V95A1.5 1.5 0 0 0 70 93.5H66A1.5 1.5 0 0 0 64.5 95v6h-9V95A1.5 1.5 0 0 0 54 93.5H50A1.5 1.5 0 0 0 48.5 95v6h-9V95A1.5 1.5 0 0 0 38 93.5H34A1.5 1.5 0 0 0 32.5 95v6H24V89.5ZM108 126s0 0 0 0H96s0 0 0 0v-4h12Zm-3-38a3 3 0 1 1 3-3A3 3 0 0 1 105 88Zm0-8a3 3 0 1 1 3-3A3 3 0 0 1 105 80Zm0-8a3 3 0 1 1 3-3A3 3 0 0 1 105 72Zm0-36a1 1 0 0 1 1 1V53a1 1 0 0 1-2 0V37A1 1 0 0 1 105 36Zm-1-3a1 1 0 1 1 1 1A1 1 0 0 1 104 33Zm8-23H16V4a2 2 0 0 1 2-2h92a2 2 0 0 1 2 2Z" fill="#471aa0" data-fill-palette-color="accent"></path><circle cx="105" cy="77" r="1.0" fill="#471aa0" data-fill-palette-color="accent"></circle><circle cx="105" cy="69" r="1.0" fill="#471aa0" data-fill-palette-color="accent"></circle></svg></g></g></svg></g><defs><mask id="7a54f425-06de-449c-903d-6072b14f8359"><rect width="640" height="400" fill="white"></rect><rect width="348.05760000000004" height="79.07096841664898" fill="black" x="145.97119999999998" y="160.46451579167552" id="transform-me" transform="matrix(1,0,0,1,-122.24000000000001,-76.4)"></rect></mask></defs></svg><rect width="395.52" height="247.2" fill="none" stroke="none" visibility="hidden"></rect></g></svg></g></svg>